<svg xmlns="http://www.w3.org/2000/svg" width="42" height="42" viewBox="0 0 42 42">
  <g id="Files-Folders_Folders_folder-upload" data-name="Files-Folders / Folders / folder-upload" transform="translate(-516.038 -660.114)">
    <g id="Group_116" data-name="Group 116" transform="translate(517.038 661.114)">
      <g id="folder-upload">
        <path id="Shape_515" data-name="Shape 515" d="M551.821,675.027v-6.957a1.739,1.739,0,0,0-1.739-1.739H532.9a1.743,1.743,0,0,1-1.555-.962l-1.649-3.294a1.737,1.737,0,0,0-1.555-.962h-9.36a1.739,1.739,0,0,0-1.739,1.739V688.94a1.74,1.74,0,0,0,1.739,1.739h12.174" transform="translate(-517.038 -661.114)" fill="none" stroke="#fe8e14" stroke-linecap="round" stroke-linejoin="round" stroke-width="2"/>
        <path id="Oval_59" data-name="Oval 59" d="M538.473,692.984a10.435,10.435,0,1,0-10.435-10.435A10.435,10.435,0,0,0,538.473,692.984Z" transform="translate(-508.908 -652.984)" fill="none" stroke="#fe8e14" stroke-linecap="round" stroke-linejoin="round" stroke-width="2"/>
        <path id="Shape_516" data-name="Shape 516" d="M534.038,685.549V675.114" transform="translate(-504.473 -650.766)" fill="none" stroke="#fe8e14" stroke-linecap="round" stroke-linejoin="round" stroke-width="2"/>
        <path id="Shape_517" data-name="Shape 517" d="M535.7,675.114l-3.913,3.913" transform="translate(-506.136 -650.766)" fill="none" stroke="#fe8e14" stroke-linecap="round" stroke-linejoin="round" stroke-width="2"/>
        <path id="Shape_518" data-name="Shape 518" d="M534.038,675.114l3.913,3.913" transform="translate(-504.473 -650.766)" fill="none" stroke="#fe8e14" stroke-linecap="round" stroke-linejoin="round" stroke-width="2"/>
      </g>
    </g>
  </g>
</svg>
